# AST/ASF file generated using VICON BodyLanguage
# -----------------------------------------------
:version 1.10
:name VICON
:units
  mass 1.0
  length 0.45
  angle deg
:documentation
   .ast/.asf automatically generated from VICON data using
   VICON BodyBuilder and BodyLanguage model FoxedUp or BRILLIANT.MOD
:root
   order TX TY TZ RX RY RZ
   axis XYZ
   position 0 0 0  
   orientation 0 0 0 
:bonedata
  begin
     id 1 
     name lhipjoint
     direction 0.573633 -0.743009 0.344793 
     length 2.46257 
     axis 0 0 0  XYZ
  end
  begin
     id 2 
     name lfemur
     direction 0.34202 -0.939693 0  
     length 7.3842  
     axis 0 0 20  XYZ
    dof rx ry rz
    limits (-160.0 20.0)
           (-70.0 70.0)
           (-60.0 70.0)
  end
  begin
     id 3 
     name ltibia
     direction 0.34202 -0.939693 0   
     length 7.50407   
     axis 0 0 20   XYZ
    dof rx
    limits (-10.0 170.0)
  end
  begin
     id 4 
     name lfoot
     direction 0.110749 -0.304281 0.946123   
     length 1.95925   
     axis -90 7.62852e-016 20   XYZ
    dof rx rz
    limits (-45.0 90.0)
           (-70.0 20.0)
  end
  begin
     id 5 
     name ltoes
     direction 1.53554e-011 -4.21843e-011 1   
     length 0.978318   
     axis -90 7.62852e-016 20   XYZ
    dof rx
    limits (-90.0 20.0)
  end
  begin
     id 6 
     name rhipjoint
     direction -0.488109 -0.791693 0.367385   
     length 2.31113  
     axis 0 0 0  XYZ 
  end
  begin
     id 7 
     name rfemur
     direction -0.34202 -0.939693 0   
     length 7.40965   
     axis 0 0 -20   XYZ
    dof rx ry rz
    limits (-160.0 20.0)
           (-70.0 70.0)
           (-70.0 60.0)
  end
  begin
     id 8 
     name rtibia
     direction -0.34202 -0.939693 0   
     length 7.55548   
     axis 0 0 -20   XYZ
    dof rx
    limits (-10.0 170.0)
 end
 begin
     id 9 
     name rfoot
     direction -0.127594 -0.350561 0.927808   
     length 2.07199  
     axis -90 -7.62852e-016 -20   XYZ
    dof rx rz
    limits (-45.0 90.0)
           (-20.0 70.0)
  end
  begin
     id 10 
     name rtoes
     direction -1.53542e-011 -4.21909e-011 1   
     length 1.02667   
     axis -90 -7.62852e-016 -20   XYZ
    dof rx
    limits (-90.0 20.0)
  end
  begin
     id 11 
     name lowerback
     direction -0.0103342 0.997298 -0.0727278   
     length 2.02836   
     axis 0 0 0   XYZ
    dof rx ry rz
    limits (-20.0 45.0)
           (-30.0 30.0)
           (-30.0 30.0)
  end
  begin
     id 12 
     name upperback
     direction 0.0171146 0.999786 -0.011606   
     length 2.03179   
     axis 0 0 0   XYZ
    dof rx ry rz
    limits (-20.0 45.0)
           (-30.0 30.0)
           (-30.0 30.0)
  end
  begin
     id 13 
     name thorax
     direction 0.0216927 0.999513 0.0224343   
     length 2.03882   
     axis 0 0 0   XYZ
    dof rx ry rz
    limits (-20.0 45.0)
           (-30.0 30.0)
           (-30.0 30.0)
  end
  begin
     id 14 
     name lowerneck
     direction 0.000989287 0.993907 0.110221   
     length 1.75428   
     axis 0 0 0   XYZ
    dof rx ry rz
    limits (-20.0 45.0)
           (-30.0 30.0)
           (-30.0 30.0)
  end
  begin
     id 15 
     name upperneck
     direction -0.0172474 0.994813 -0.100253   
     length 1.77058   
     axis 0 0 0   XYZ
    dof rx ry rz
    limits (-20.0 45.0)
           (-30.0 30.0)
           (-30.0 30.0)
  end
  begin
     id 16
     name head
     direction -0.00486455 0.99894 -0.0457663  
     length 1.77427  
     axis 0 0 0   XYZ
    dof rx ry rz
    limits (-20.0 45.0)
           (-30.0 30.0)
           (-30.0 30.0)
  end
  begin
     id 17 
     name lclavicle
     direction 0.927314 0.333734 -0.169441  
     length 3.97584  
     axis 0 0 0   XYZ
    dof ry rz
    limits (-20.0 10.0)
           (0.0 20.0)
  end
  begin
     id 18 
     name lhumerus
     direction 1 -4.48965e-011 -3.25313e-028   
     length 4.76468   
     axis 180 -30 -90   XYZ
    dof rx ry rz
    limits (-60.0 90.0)
           (-90.0 90.0)
           (-90.0 90.0)
  end
  begin
     id 19
     name lradius
     direction 1 -4.48969e-011 -2.8465e-028   
     length 3.52712   
     axis -180 -30 -90   XYZ
    dof rx
    limits (-10.0 170.0)
  end
  begin
     id 20
     name lwrist
     direction 1 -4.4896e-011 -7.78665e-028   
     length 1.76356   
     axis 1.91374e-015 90 90   XYZ
    dof ry
    limits (-180.0 0.0)
 end
  begin
     id 21 
     name lhand
     direction 1 -4.48959e-011 -1.55733e-027   
     length 0.859564   
     axis 9.9371e-016 90 90   XYZ
    dof rx rz
    limits (-90.0 90.0)
           (-45.0 45.0)
  end
  begin
     id 22 
     name lfingers
     direction 1 -4.48965e-011 -3.11466e-027   
     length 0.693002   
     axis 1.98742e-015 90 90   XYZ
    dof rx
    limits (0.0 90.0)
  end
  begin
     id 23
     name lthumb
     direction 0.707107 -6.34948e-011 0.707107   
     length 0.995017   
     axis -90 45 2.85299e-015   XYZ
    dof rx rz
    limits (-45.0 45.0)
           (-45.0 45.0)
  end
  begin
     id 24 
     name rclavicle
     direction -0.899388 0.348209 -0.264294   
     length 3.68366  
     axis 0 0 0   XYZ 
    dof ry rz
    limits (-10.0 20.0)
           (-20.0 0.0)
  end
  begin
     id 25 
     name rhumerus
     direction -1 -4.48965e-011 -3.01536e-027  
     length 4.90577   
     axis 180 30 90   XYZ
    dof rx ry rz
    limits (-90.0 60.0)
           (-90.0 90.0)
           (-90.0 90.0)
  end
  begin
     id 26 
     name rradius
     direction -1 -4.48966e-011 3.93291e-027   
     length 3.42692   
     axis -180 30 90   XYZ
    dof rx
    limits (-10.0 170.0)
  end
  begin
     id 27 
     name rwrist
     direction -1 -4.48969e-011 -7.78665e-028   
     length 1.71346   
     axis 1.91374e-015 -90 -90   XYZ
    dof ry
    limits (-180.0 0.0)
  end
  begin
     id 28
     name rhand
     direction -1 -4.48967e-011 -1.55733e-027   
     length 0.740957   
     axis 9.9371e-016 -90 -90   XYZ
    dof rx rz
    limits (-90.0 90.0)
           (-45.0 45.0)
  end
  begin
     id 29
     name rfingers
     direction -1 -4.48949e-011 -3.11466e-027   
     length 0.597378   
     axis 1.98742e-015 -90 -90   XYZ
    dof rx
    limits (0.0 90.0)
  end
  begin
     id 30
     name rthumb
     direction -0.707107 -6.34931e-011 0.707107   
     length 0.857719   
     axis -90 -45 -2.85299e-015   XYZ
    dof rx rz
    limits (-45.0 45.0)
           (-45.0 45.0)
  end
:hierarchy
  begin
    root lhipjoint rhipjoint lowerback
    lhipjoint lfemur
    lfemur ltibia
    ltibia lfoot
    lfoot ltoes
    rhipjoint rfemur
    rfemur rtibia
    rtibia rfoot
    rfoot rtoes
    lowerback upperback
    upperback thorax
    thorax lowerneck lclavicle rclavicle
    lowerneck upperneck
    upperneck head
    lclavicle lhumerus
    lhumerus lradius
    lradius lwrist
    lwrist lhand lthumb
    lhand lfingers
    rclavicle rhumerus
    rhumerus rradius
    rradius rwrist
    rwrist rhand rthumb
    rhand rfingers
  end

#!OML:ASF E:\I on waltz\AllaLogoMonkeySwing\Project 1\Capture day 1\Session 1\Subject1.ASF
:FULLY-SPECIFIED
:DEGREES
224
root 0.329746 15.4612 -0.846456 14.9273 -1.15606 -1.09116
lowerback 18.8767 1.68112 -3.21012
upperback -0.743325 1.75584 2.14009
thorax -11.6447 1.09957 3.70472
lowerneck -21.845 1.34562 0.202055
upperneck 8.52276 1.92234 -1.2744
head 6.10297 0.827023 -0.228454
rclavicle -4.17448e-015 -1.47101e-014
rhumerus -30.3451 1.45012 -77.0712
rradius 79.2957
rwrist -9.74665
rhand -12.1839 -30.3456
rfingers 7.12502
rthumb 13.8798 -59.8624
lclavicle -4.17448e-015 -1.47101e-014
lhumerus -36.9257 -7.27728 89.3747
lradius 83.4338
lwrist 17.407
lhand -18.5493 -31.2331
lfingers 7.12502
lthumb 7.74017 -1.39472
rfemur -28.6278 -2.90956 3.71201
rtibia 57.7501
rfoot -36.3027 -19.3684
rtoes -9.58978
lfemur -23.1925 10.2985 0.0438635
ltibia 52.3047
lfoot -37.4048 7.63496
ltoes -42.2695
225
root 0.3372 15.6338 -0.43168 14.059 -0.735975 -0.931484
lowerback 18.067 1.49055 -3.106
upperback -1.14616 1.54494 2.09591
thorax -11.6113 1.00033 3.66164
lowerneck -21.8362 1.2878 -0.0310052
upperneck 9.85859 1.88515 -0.973423
head 6.53054 0.818278 -0.0931837
rclavicle 1.49089e-015 7.95139e-016
rhumerus -32.464 2.62137 -75.3318
rradius 85.581
rwrist -6.91314
rhand -10.9472 -28.7531
rfingers 7.12502
rthumb 15.0713 -58.1845
lclavicle 1.49089e-015 7.95139e-016
lhumerus -39.3954 -8.66714 88.1248
lradius 89.4774
lwrist 17.7319
lhand -19.0179 -31.8482
lfingers 7.12502
lthumb 7.28789 -1.99373
rfemur -23.9235 -3.4975 3.58411
rtibia 53.7782
rfoot -35.3635 -19.0015
rtoes -9.89736
lfemur -18.4456 8.46523 0.199957
ltibia 47.4829
lfoot -36.4282 6.76472
ltoes -42.2752
226
root 0.339586 15.8906 0.0649713 12.7333 -0.506929 -0.744619
lowerback 16.8293 1.40144 -3.2182
upperback -1.54146 1.4283 2.01613
thorax -11.3323 0.952328 3.67573
lowerneck -21.2371 1.19226 0.146472
upperneck 11.4195 1.70375 -0.850282
head 6.94579 0.743158 -0.100352
rclavicle 4.07509e-015 -2.38542e-015
rhumerus -35.0441 4.08823 -73.416
rradius 90.9884
rwrist -3.25372
rhand -10.1826 -27.3959
rfingers 7.12502
rthumb 15.8078 -56.7705
lclavicle 4.07509e-015 -2.38542e-015
lhumerus -42.4009 -9.85239 86.7113
lradius 94.2228
lwrist 17.6884
lhand -18.4405 -31.772
lfingers 7.12502
lthumb 7.84518 -1.93758
rfemur -17.915 -3.65767 3.36855
rtibia 48.5709
rfoot -33.7907 -18.3337
rtoes -9.75937
lfemur -12.4022 6.17013 -0.0101443
ltibia 41.695
lfoot -34.3247 6.24388
ltoes -42.4832
227
root 0.359451 16.2148 0.651676 11.0466 -0.0722909 -0.152321
lowerback 15.1565 1.16831 -3.4192
upperback -1.90222 1.10881 1.85594
thorax -10.7359 0.802974 3.70094
lowerneck -20.5572 1.19503 0.749535
upperneck 13.5524 1.70317 -1.63879
head 7.55248 0.687043 -0.455938
rclavicle -7.95139e-016 3.97569e-015
rhumerus -38.3621 6.33616 -71.3662
rradius 95.9268
rwrist -0.855427
rhand -9.89226 -27.7207
rfingers 7.12502
rthumb 16.0874 -57.0729
lclavicle -7.95139e-016 3.97569e-015
lhumerus -45.9284 -10.8477 84.9914
lradius 98.0242
lwrist 17.1768
lhand -17.3916 -31.7972
lfingers 7.12502
lthumb 8.85747 -2.00308
rfemur -10.703 -4.33178 2.3079
rtibia 42.3145
rfoot -29.985 -16.6833
rtoes -10.6841
lfemur -5.71123 3.40097 -1.12923
ltibia 35.0284
lfoot -30.2491 6.46706
ltoes -43.7391
228
root 0.381267 16.5894 1.24436 10.5492 0.109859 -0.178926
lowerback 12.0933 0.942489 -3.0413
upperback -2.45761 0.953395 1.81564
thorax -9.54172 0.691896 3.48171
lowerneck -20.0618 1.23208 0.967997
upperneck 15.7455 1.78225 -1.89422
head 8.20858 0.70148 -0.567645
rclavicle -1.19271e-015 8.74653e-015
rhumerus -40.8809 8.99457 -69.4455
rradius 99.8591
rwrist -0.627989
rhand -10.7184 -27.6975
rfingers 7.12502
rthumb 15.2917 -57.1122
lclavicle -1.19271e-015 8.74653e-015
lhumerus -49.4557 -11.7431 82.9062
lradius 101.22
lwrist 16.4648
lhand -16.5626 -31.9035
lfingers 7.12502
lthumb 9.6574 -2.14489
rfemur -6.1409 -4.30732 2.15187
rtibia 37.8925
rfoot -23.1482 -14.5748
rtoes -11.1094
lfemur -1.05422 1.88558 -1.6987
ltibia 30.1974
lfoot -22.826 6.17456
ltoes -46.8989
229
root 0.403317 17.0591 1.82547 9.44905 0.204517 -0.662877
lowerback 10.0637 0.761229 -2.1826
upperback -2.78556 0.886782 1.92616
thorax -8.69557 0.606884 3.12912
lowerneck -19.5497 1.31774 1.1113
upperneck 17.6158 1.95366 -2.14661
head 8.76217 0.75676 -0.657141
rclavicle 5.31749e-015 1.55052e-014
rhumerus -42.6446 11.7494 -67.3001
rradius 103.218
rwrist -1.04702
rhand -10.5166 -27.6121
rfingers 7.12502
rthumb 15.4862 -57.0118
lclavicle 5.31749e-015 1.55052e-014
lhumerus -52.5052 -12.2979 80.5099
lradius 103.739
lwrist 15.3507
lhand -15.6503 -32.2915
lfingers 7.12502
lthumb 10.5375 -2.57566
rfemur -2.2013 -4.00687 2.73693
rtibia 34.8483
rfoot -13.6358 -12.3098
rtoes -12.4147
lfemur 3.31184 1.22972 -1.8178
ltibia 26.5997
lfoot -13.7928 4.76066
ltoes -51.6806
